<svg width="35" height="36" viewBox="0 0 35 36" fill="none" xmlns="http://www.w3.org/2000/svg">
<path d="M28.9583 30V13.698L17.375 6.49795L5.79165 13.698V30H11.5833V25.875C11.5833 24.2837 12.1935 22.7575 13.2797 21.6323C14.3658 20.5071 15.8389 19.875 17.375 19.875C18.911 19.875 20.3842 20.5071 21.4703 21.6323C22.5565 22.7575 23.1666 24.2837 23.1666 25.875V30H28.9583ZM20.2708 33V25.875C20.2708 25.0793 19.9657 24.3162 19.4226 23.7536C18.8796 23.191 18.143 22.875 17.375 22.875C16.607 22.875 15.8704 23.191 15.3273 23.7536C14.7842 24.3162 14.4791 25.0793 14.4791 25.875V33H5.79165C5.02362 33 4.28706 32.6839 3.74398 32.1213C3.20091 31.5587 2.89581 30.7956 2.89581 30V13.698C2.89581 13.1799 3.0253 12.6707 3.27168 12.2198C3.51806 11.769 3.87293 11.392 4.30174 11.1255L15.8851 3.92545C16.3351 3.6457 16.8501 3.49792 17.375 3.49792C17.8998 3.49792 18.4148 3.6457 18.8649 3.92545L30.4482 11.1255C30.877 11.392 31.2319 11.769 31.4783 12.2198C31.7247 12.6707 31.8542 13.1799 31.8541 13.698V30C31.8541 30.7956 31.5491 31.5587 31.006 32.1213C30.4629 32.6839 29.7263 33 28.9583 33H20.2708Z" fill="#AAAAAA"/>
</svg>
