<svg width="20" height="27" viewBox="0 0 20 27" fill="none" xmlns="http://www.w3.org/2000/svg">
<path d="M19.7767 12.399C19.7433 12.254 19.6745 12.1195 19.5763 12.0076C19.4781 11.8957 19.3538 11.8099 19.2143 11.7578L12.735 9.32811L14.3773 1.08274C14.4151 0.891745 14.3907 0.693674 14.3077 0.517557C14.2247 0.341441 14.0875 0.196541 13.9161 0.104094C13.7431 0.0120489 13.5445 -0.0202086 13.3512 0.0123429C13.1579 0.0448944 12.9808 0.140429 12.8475 0.284075L0.248818 13.7826C0.145585 13.8897 0.0708912 14.021 0.0315842 14.1645C-0.00772266 14.308 -0.0103847 14.459 0.0238419 14.6038C0.059059 14.748 0.128582 14.8817 0.226502 14.9933C0.324422 15.1049 0.447846 15.1913 0.586282 15.245L7.06559 17.6747L5.42327 25.9201C5.3855 26.1111 5.4099 26.3091 5.4929 26.4853C5.57589 26.6614 5.71312 26.8063 5.88447 26.8987C6.01362 26.9639 6.15602 26.9985 6.30067 27C6.42292 27.0005 6.54395 26.9758 6.65621 26.9274C6.76848 26.879 6.86955 26.808 6.9531 26.7187L19.5518 13.2202C19.655 13.1131 19.7297 12.9818 19.769 12.8383C19.8083 12.6948 19.811 12.5438 19.7767 12.399Z" fill="#438883"/>
</svg>
