<svg width="266" height="178" viewBox="0 0 266 178" fill="none" xmlns="http://www.w3.org/2000/svg">
<g clip-path="url(#clip0_4302_2464)">
<path d="M24.5476 177.722L24.5352 177.793C24.5205 177.724 24.5063 177.654 24.4929 177.584C24.4683 177.472 24.4469 177.36 24.4268 177.247C23.628 172.842 24.0676 168.332 25.7073 164.109C26.0225 163.285 26.3815 162.475 26.7843 161.681C28.3246 158.606 30.5083 155.81 33.2225 153.439C34.1038 152.649 35.1093 151.973 36.2086 151.432C36.37 151.357 36.5323 151.286 36.6982 151.22C37.7149 150.788 38.8595 150.643 39.9744 150.804C40.3794 150.871 40.7719 150.986 41.1408 151.147C41.2701 151.202 41.3947 151.263 41.5169 151.328C42.2621 151.756 42.8983 152.314 43.3859 152.968C43.8734 153.621 44.2017 154.356 44.3501 155.126C44.5619 156.274 44.5134 157.448 44.2076 158.58C44.1813 158.688 44.1531 158.796 44.1229 158.903C43.9061 159.657 43.6336 160.399 43.3073 161.122C40.0407 168.486 33.0207 175.02 24.5476 177.722Z" fill="#F2F2F2"/>
<path d="M41.119 151.171C38.5701 154.38 36.1623 157.671 33.8956 161.042C31.6317 164.412 29.5158 167.853 27.5479 171.366C26.4471 173.331 25.3944 175.317 24.3898 177.322C24.2786 177.544 24.6538 177.737 24.7664 177.512C26.5605 173.932 28.5075 170.416 30.6073 166.962C32.7058 163.511 34.9516 160.134 37.3449 156.83C38.684 154.982 40.0676 153.159 41.4956 151.361C41.6553 151.16 41.2781 150.971 41.119 151.171Z" fill="white"/>
<path d="M43.8464 158.599C41.931 160.78 39.1116 162.212 35.9996 162.584C35.1313 162.687 34.2523 162.703 33.3801 162.629C33.1011 162.606 33.0991 162.987 33.3758 163.01C36.6217 163.249 39.8443 162.357 42.344 160.527C43.0451 160.014 43.6757 159.43 44.223 158.789C44.3906 158.594 44.0128 158.405 43.8464 158.599Z" fill="white"/>
<path d="M27.4872 170.43C27.0418 169.874 26.6719 169.275 26.3846 168.644C25.7285 167.206 25.4956 165.646 25.7073 164.109C26.0225 163.285 26.3815 162.475 26.7843 161.681C26.8087 161.712 26.8234 161.749 26.8269 161.786C26.8304 161.824 26.8226 161.862 26.8044 161.896C26.5207 162.492 26.3168 163.115 26.1967 163.751C25.7656 166.022 26.3641 168.351 27.8646 170.241C27.8836 170.262 27.8962 170.286 27.9013 170.312C27.9063 170.338 27.9036 170.365 27.8935 170.39C27.8767 170.423 27.8503 170.452 27.8169 170.473C27.7836 170.495 27.7444 170.508 27.7033 170.512C27.6622 170.516 27.6206 170.511 27.5827 170.496C27.5448 170.482 27.5119 170.459 27.4872 170.43Z" fill="white"/>
<path d="M36.2736 151.19C35.7494 153.021 35.9055 154.95 36.7192 156.697C36.7481 156.74 36.7954 156.772 36.8509 156.786C36.9064 156.799 36.9656 156.792 37.0157 156.768C37.0648 156.742 37.1005 156.7 37.1156 156.652C37.1306 156.604 37.1239 156.552 37.0967 156.508C36.3347 154.85 36.1933 153.023 36.6929 151.291C36.7059 151.243 36.6971 151.192 36.6683 151.149C36.6395 151.107 36.593 151.076 36.5386 151.063C36.4842 151.05 36.4261 151.056 36.3767 151.08C36.3272 151.104 36.2903 151.143 36.2736 151.19H36.2736Z" fill="white"/>
<path d="M24.4942 168.525L24.5206 168.593C24.4712 168.538 24.4213 168.481 24.3727 168.425C24.2915 168.336 24.2132 168.246 24.1356 168.154C21.0924 164.578 19.0906 160.405 18.3037 155.998C18.1457 155.14 18.0346 154.277 17.9702 153.41C17.7038 150.059 18.1554 146.695 19.3017 143.49C19.6632 142.432 20.1952 141.424 20.8818 140.497C20.985 140.365 21.091 140.236 21.2032 140.111C21.8744 139.314 22.811 138.72 23.884 138.409C24.278 138.303 24.6868 138.246 25.0988 138.238C25.2426 138.234 25.3849 138.237 25.5274 138.245C26.4143 138.321 27.2738 138.556 28.052 138.937C28.8303 139.317 29.5105 139.834 30.0501 140.455C30.8465 141.386 31.4259 142.445 31.7553 143.572C31.7893 143.679 31.8215 143.785 31.8516 143.893C32.0596 144.649 32.2114 145.416 32.306 146.19C33.3175 154.041 30.5648 162.683 24.4942 168.525Z" fill="#F2F2F2"/>
<path d="M25.092 138.268C24.5363 142.147 24.1486 146.041 23.929 149.95C23.7104 153.855 23.6611 157.763 23.781 161.675C23.8483 163.864 23.9687 166.05 24.1423 168.235C24.1615 168.477 24.5961 168.495 24.5767 168.25C24.2675 164.35 24.1271 160.443 24.1554 156.53C24.1844 152.62 24.3827 148.716 24.7502 144.816C24.956 142.634 25.2147 140.456 25.5264 138.283C25.5612 138.04 25.1267 138.026 25.092 138.268V138.268Z" fill="white"/>
<path d="M31.4456 143.736C30.9057 146.447 29.168 148.862 26.6092 150.458C25.8954 150.903 25.1251 151.275 24.3137 151.565C24.0543 151.658 24.2546 151.996 24.5118 151.904C27.5131 150.794 29.8939 148.693 31.1373 146.055C31.486 145.315 31.7352 144.542 31.88 143.751C31.9248 143.51 31.4901 143.497 31.4456 143.736V143.736Z" fill="white"/>
<path d="M23.231 160.871C22.542 160.56 21.8966 160.18 21.3078 159.738C19.9644 158.732 18.9313 157.446 18.3036 155.998C18.1457 155.14 18.0346 154.277 17.9702 153.41C18.0084 153.427 18.0406 153.454 18.0637 153.485C18.0868 153.517 18.1 153.554 18.102 153.592C18.1667 154.235 18.3162 154.869 18.5475 155.482C19.3698 157.669 21.1344 159.487 23.4651 160.55C23.4929 160.561 23.5171 160.577 23.5354 160.598C23.5537 160.619 23.5656 160.644 23.5698 160.67C23.5725 160.707 23.5643 160.743 23.5461 160.775C23.5279 160.808 23.5003 160.836 23.466 160.856C23.4318 160.876 23.3921 160.888 23.3508 160.891C23.3096 160.893 23.2683 160.887 23.231 160.871Z" fill="white"/>
<path d="M20.8114 140.257C21.3175 142.091 22.4786 143.736 24.1255 144.952C24.1742 144.979 24.233 144.988 24.2892 144.977C24.3453 144.966 24.3944 144.937 24.4257 144.894C24.4553 144.851 24.465 144.8 24.4527 144.751C24.4404 144.702 24.4071 144.659 24.3596 144.631C22.8059 143.473 21.7121 141.913 21.2359 140.175C21.2219 140.128 21.1873 140.086 21.1392 140.06C21.0912 140.035 21.0336 140.026 20.9785 140.037C20.9234 140.047 20.8752 140.076 20.844 140.117C20.8129 140.159 20.8012 140.209 20.8114 140.257L20.8114 140.257Z" fill="white"/>
<path d="M24.6823 177.769L24.7461 177.813C24.6707 177.791 24.594 177.766 24.5186 177.742C24.3955 177.705 24.2738 177.666 24.152 177.625C19.3896 176.048 15.138 173.477 11.7658 170.135C11.1051 169.486 10.4812 168.812 9.8939 168.111C7.61005 165.414 5.92253 162.366 4.91847 159.125C4.57241 158.063 4.40117 156.963 4.40996 155.858C4.41576 155.698 4.42588 155.539 4.44328 155.38C4.51921 154.393 4.94291 153.45 5.65599 152.682C5.92296 152.407 6.23208 152.165 6.57454 151.965C6.69332 151.893 6.81506 151.829 6.93966 151.768C7.7336 151.413 8.60253 151.206 9.49207 151.159C10.3816 151.113 11.2726 151.227 12.1092 151.496C13.3524 151.905 14.4916 152.524 15.4618 153.318C15.556 153.391 15.6487 153.466 15.74 153.542C16.3802 154.082 16.9798 154.657 17.5351 155.264C23.2132 161.401 26.2065 169.982 24.6823 177.769Z" fill="#F2F2F2"/>
<path d="M6.58713 151.993C8.50342 155.524 10.5703 158.987 12.7879 162.384C15.004 165.778 17.365 169.094 19.8707 172.334C21.2727 174.146 22.7183 175.932 24.2075 177.691C24.3723 177.885 24.7497 177.696 24.5828 177.498C21.9248 174.358 19.405 171.132 17.0235 167.822C14.6448 164.514 12.4115 161.13 10.3238 157.671C9.15596 155.735 8.03549 153.779 6.96244 151.801C6.84238 151.579 6.46751 151.772 6.58713 151.993Z" fill="white"/>
<path d="M15.3017 153.602C16.5132 156.141 16.5337 158.996 15.3587 161.548C15.0309 162.26 14.6101 162.936 14.1046 163.563C13.9433 163.764 14.32 163.955 14.4799 163.756C16.3269 161.405 17.0411 158.511 16.4672 155.701C16.3062 154.913 16.041 154.144 15.6771 153.41C15.5665 153.185 15.192 153.379 15.3017 153.602Z" fill="white"/>
<path d="M18.913 171.916C18.1413 171.979 17.3638 171.963 16.5963 171.869C14.8456 171.655 13.1846 171.058 11.7658 170.135C11.1051 169.486 10.4811 168.812 9.89389 168.111C9.93694 168.108 9.98016 168.115 10.0193 168.131C10.0584 168.147 10.0921 168.172 10.117 168.203C10.5668 168.714 11.0826 169.178 11.6542 169.585C13.6911 171.039 16.2958 171.739 18.913 171.535C18.9429 171.531 18.9735 171.533 19.0019 171.542C19.0303 171.551 19.0555 171.567 19.0752 171.587C19.0997 171.616 19.115 171.65 19.1197 171.686C19.1243 171.722 19.1182 171.759 19.1017 171.792C19.0853 171.825 19.0593 171.854 19.0262 171.876C18.9931 171.898 18.9541 171.911 18.913 171.916Z" fill="white"/>
<path d="M4.20312 155.689C5.75702 156.995 7.74632 157.833 9.88147 158.081C9.99881 158.094 10.0977 157.983 10.0988 157.89C10.0974 157.84 10.0741 157.793 10.0336 157.757C9.99317 157.722 9.93868 157.701 9.88147 157.7C7.86061 157.457 5.97988 156.659 4.51047 155.419C4.30901 155.249 4.00125 155.518 4.2031 155.689H4.20312Z" fill="white"/>
<path d="M54.35 127.542C54.7744 127.287 55.1299 126.954 55.3914 126.566C55.6529 126.177 55.8141 125.744 55.8635 125.295C55.9129 124.846 55.8494 124.393 55.6775 123.968C55.5055 123.543 55.2293 123.156 54.8683 122.835L56.2338 96.1299L49.2819 96.8136L49.6857 122.935C49.1098 123.502 48.7913 124.235 48.7906 124.994C48.79 125.753 49.1071 126.486 49.6821 127.054C50.257 127.622 51.0497 127.985 51.91 128.075C52.7704 128.165 53.6385 127.976 54.35 127.542Z" fill="#FFB8B8"/>
<path d="M67.0322 172.748L70.9889 173.358L74.8995 160.277L69.7152 159.377L67.0322 172.748Z" fill="#FFB8B8"/>
<path d="M77.9735 177.752L65.5384 175.837L66.383 171.627L74.0137 172.803C74.6446 172.9 75.2475 173.105 75.788 173.406C76.3285 173.708 76.7959 174.099 77.1636 174.559C77.5313 175.018 77.7921 175.537 77.9311 176.085C78.07 176.633 78.0845 177.199 77.9735 177.752Z" fill="#2F2E41"/>
<path d="M56.1721 174.484L60.1895 174.483L62.1005 160.907L56.1714 160.907L56.1721 174.484Z" fill="#FFB8B8"/>
<path d="M67.9372 177.752L55.3113 177.752L55.3111 173.478L63.0588 173.478C64.3526 173.478 65.5934 173.928 66.5083 174.729C67.4231 175.531 67.9371 176.618 67.9372 177.752L67.9372 177.752Z" fill="#2F2E41"/>
<path d="M73.2616 170.766C73.1989 170.766 73.1362 170.763 73.074 170.756L68.3455 170.415C68.1302 170.393 67.9223 170.333 67.7345 170.238C67.5466 170.143 67.3827 170.016 67.2526 169.864C67.1226 169.712 67.0292 169.539 66.9781 169.354C66.927 169.169 66.9192 168.978 66.9553 168.79L71.3216 147.35L68.3713 133.72C68.3472 133.609 68.2783 133.51 68.1771 133.44C68.076 133.371 67.9496 133.335 67.8211 133.341C67.6926 133.347 67.5707 133.393 67.478 133.471C67.3852 133.549 67.3279 133.654 67.3165 133.766L63.6281 170.12C63.5876 170.485 63.387 170.822 63.0685 171.06C62.75 171.297 62.3386 171.417 61.921 171.394L57.4663 171.249C57.0759 171.225 56.7091 171.076 56.4352 170.831C56.1613 170.586 55.9993 170.262 55.9797 169.919L55.6803 126.347L78.7758 123.818L80.3892 145.649L80.3827 145.672L74.8152 169.695C74.7304 170 74.5312 170.272 74.2495 170.466C73.9678 170.66 73.62 170.766 73.2616 170.766Z" fill="#2F2E41"/>
<path d="M63.2948 78.8246C67.7397 78.8246 71.3431 75.6676 71.3431 71.7732C71.3431 67.8789 67.7397 64.7218 63.2948 64.7218C58.8499 64.7218 55.2466 67.8789 55.2466 71.7732C55.2466 75.6676 58.8499 78.8246 63.2948 78.8246Z" fill="#FFB8B8"/>
<path d="M70.8782 129.532C69.6195 129.539 68.3849 129.229 67.3206 128.64C63.422 126.506 58.994 127.354 56.7014 128.05C56.4739 128.12 56.2314 128.143 55.9919 128.12C55.7524 128.096 55.5222 128.025 55.3184 127.912C55.117 127.801 54.9468 127.652 54.8206 127.475C54.6944 127.299 54.6154 127.099 54.5895 126.892L50.4206 94.2706C49.7219 88.8049 53.4798 83.6662 59.3557 82.0518C59.5765 81.9912 59.801 81.9336 60.0292 81.8793C61.8577 81.4449 63.7727 81.3669 65.6394 81.6507C67.506 81.9346 69.279 82.5734 70.8335 83.5222C72.417 84.4814 73.7413 85.7331 74.7132 87.189C75.685 88.645 76.2809 90.2699 76.4588 91.9494L79.9685 124.79C79.9924 125.002 79.9596 125.217 79.8728 125.416C79.7859 125.616 79.6474 125.795 79.468 125.94C78.2378 126.937 74.6669 129.532 70.8782 129.532Z" fill="#6C63FF"/>
<path d="M58.1834 101.266L48.7778 100.36C48.5102 100.334 48.2521 100.258 48.021 100.137C47.79 100.016 47.5914 99.8528 47.4389 99.6584C47.2863 99.464 47.1834 99.2431 47.137 99.0108C47.0907 98.7784 47.1021 98.54 47.1704 98.3119L49.5645 90.3172C49.7228 89.1184 50.4173 88.0235 51.4956 87.2725C52.574 86.5216 53.9482 86.1759 55.3169 86.3113C56.6857 86.4467 57.9373 87.0522 58.7974 87.9949C59.6575 88.9376 60.0558 90.1406 59.905 91.3402L60.2604 99.5729C60.2705 99.8086 60.2225 100.043 60.1196 100.261C60.0168 100.479 59.8615 100.675 59.6644 100.836C59.4673 100.997 59.233 101.118 58.9774 101.193C58.7219 101.267 58.451 101.292 58.1834 101.266V101.266Z" fill="#6C63FF"/>
<path d="M79.9309 126.399C80.3172 126.101 80.6242 125.733 80.8304 125.319C81.0366 124.906 81.1369 124.459 81.1242 124.008C81.1115 123.557 80.9862 123.114 80.757 122.711C80.5279 122.307 80.2005 121.952 79.7979 121.671L77.4803 95.0164L70.6682 96.3599L74.6669 122.317C74.1732 122.941 73.9578 123.702 74.0615 124.456C74.1652 125.209 74.5809 125.904 75.2298 126.407C75.8786 126.91 76.7156 127.187 77.582 127.185C78.4484 127.184 79.2842 126.904 79.9309 126.399V126.399Z" fill="#FFB8B8"/>
<path d="M68.0565 99.5904C67.8594 99.4298 67.7041 99.2338 67.6012 99.0158C67.4984 98.7978 67.4504 98.563 67.4607 98.3273L67.8161 90.0947C67.6653 88.8951 68.0636 87.692 68.9237 86.7493C69.7837 85.8066 71.0353 85.2012 72.4041 85.0658C73.7729 84.9303 75.1471 85.276 76.2254 86.0269C77.3038 86.7779 77.9983 87.8728 78.1566 89.0717L80.5507 97.0663C80.619 97.2944 80.6303 97.5328 80.584 97.7652C80.5377 97.9975 80.4347 98.2184 80.2822 98.4128C80.1297 98.6072 79.9311 98.7704 79.7 98.8915C79.469 99.0126 79.2108 99.0886 78.9432 99.1144L69.5376 100.02C69.27 100.046 68.9991 100.021 68.7435 99.9471C68.4879 99.8729 68.2536 99.7513 68.0565 99.5904Z" fill="#6C63FF"/>
<path d="M62.8161 79.0903C62.6731 79.0902 62.5305 79.0756 62.3913 79.0468L62.3504 79.0382C55.2742 78.0897 53.7105 74.4987 53.3672 72.999C53.0119 71.4463 53.4165 69.9476 54.3306 69.3656C53.8322 67.9867 53.9122 66.7642 54.569 65.7303C55.7143 63.9273 58.2 63.3176 58.5334 63.2431C60.5185 61.96 62.8937 62.8165 63.3258 62.9902C67.1658 61.7455 68.6335 62.7816 68.8989 63.0129C70.6154 63.283 71.6617 63.8639 72.009 64.7399C72.6614 66.3853 70.5982 68.432 70.5101 68.5183L70.4643 68.563L67.3906 68.6913C67.0989 68.7035 66.8134 68.7693 66.5527 68.8844C66.2919 68.9994 66.0616 69.1613 65.8768 69.3593C65.692 69.5574 65.5568 69.7873 65.4799 70.0341C65.4031 70.2809 65.3863 70.5391 65.4307 70.792C65.5138 71.1182 65.6189 71.4399 65.7454 71.7553C66.2703 73.1926 66.6636 74.4205 66.1563 74.8873C66.0414 74.9776 65.8998 75.0378 65.7476 75.0609C65.5955 75.084 65.439 75.0691 65.2961 75.018C64.8155 74.9055 64.4892 74.9291 64.3266 75.0882C64.0742 75.3349 64.1513 75.9594 64.5436 76.8468C64.6667 77.1274 64.6998 77.4321 64.6394 77.728C64.579 78.0239 64.4274 78.2997 64.2009 78.5255C64.0304 78.7017 63.8183 78.8435 63.5792 78.941C63.3402 79.0385 63.0798 79.0894 62.8161 79.0903Z" fill="#2F2E41"/>
<path d="M157.865 101.632H118.215C116.738 101.631 115.322 101.116 114.278 100.201C113.233 99.2862 112.646 98.0456 112.644 96.7516V44.5484C112.646 43.2544 113.233 42.0138 114.278 41.0988C115.322 40.1839 116.738 39.6692 118.215 39.6677H157.865C159.341 39.6692 160.757 40.1839 161.802 41.0988C162.846 42.0138 163.433 43.2544 163.435 44.5484V96.7516C163.433 98.0456 162.846 99.2862 161.802 100.201C160.757 101.116 159.341 101.631 157.865 101.632ZM118.215 40.2419C116.912 40.2432 115.662 40.6973 114.741 41.5047C113.819 42.312 113.301 43.4066 113.3 44.5484V96.7516C113.301 97.8934 113.819 98.988 114.741 99.7953C115.662 100.603 116.912 101.057 118.215 101.058H157.865C159.168 101.057 160.417 100.603 161.339 99.7953C162.26 98.988 162.778 97.8934 162.78 96.7516V44.5484C162.778 43.4066 162.26 42.312 161.339 41.5047C160.417 40.6973 159.168 40.2432 157.865 40.2419H118.215Z" fill="#3F3D56"/>
<path d="M151.802 64.7646H124.277C123.539 64.7639 122.831 64.5065 122.308 64.049C121.786 63.5915 121.493 62.9712 121.492 62.3243V50.8404C121.493 50.1934 121.786 49.5731 122.308 49.1156C122.831 48.6581 123.539 48.4008 124.277 48.4001H151.802C152.541 48.4008 153.249 48.6581 153.771 49.1156C154.293 49.5731 154.587 50.1934 154.588 50.8404V62.3243C154.587 62.9712 154.293 63.5915 153.771 64.049C153.249 64.5065 152.541 64.7638 151.802 64.7646Z" fill="#6C63FF"/>
<path d="M149.836 75.5307H126.243C125.548 75.5307 124.881 75.2887 124.39 74.858C123.898 74.4272 123.622 73.843 123.622 73.2339C123.622 72.6248 123.898 72.0406 124.39 71.6098C124.881 71.1791 125.548 70.9371 126.243 70.9371H149.836C150.532 70.9371 151.198 71.1791 151.69 71.6098C152.182 72.0406 152.458 72.6248 152.458 73.2339C152.458 73.843 152.182 74.4272 151.69 74.858C151.198 75.2887 150.532 75.5307 149.836 75.5307Z" fill="#CCCCCC"/>
<path d="M149.836 84.1436H126.243C125.548 84.1436 124.881 83.9016 124.39 83.4709C123.898 83.0401 123.622 82.4559 123.622 81.8468C123.622 81.2377 123.898 80.6535 124.39 80.2227C124.881 79.792 125.548 79.55 126.243 79.55H149.836C150.532 79.55 151.198 79.792 151.69 80.2227C152.182 80.6535 152.458 81.2377 152.458 81.8468C152.458 82.4559 152.182 83.0401 151.69 83.4709C151.198 83.9016 150.532 84.1436 149.836 84.1436Z" fill="#CCCCCC"/>
<path d="M149.836 92.7565H126.243C125.548 92.7565 124.881 92.5145 124.39 92.0838C123.898 91.653 123.622 91.0688 123.622 90.4597C123.622 89.8506 123.898 89.2664 124.39 88.8356C124.881 88.4049 125.548 88.1629 126.243 88.1629H149.836C150.532 88.1629 151.198 88.4049 151.69 88.8356C152.182 89.2664 152.458 89.8506 152.458 90.4597C152.458 91.0688 152.182 91.653 151.69 92.0838C151.198 92.5145 150.532 92.7565 149.836 92.7565Z" fill="#CCCCCC"/>
<path d="M254.531 130.916H214.881C213.405 130.915 211.989 130.4 210.944 129.485C209.9 128.57 209.313 127.329 209.311 126.035V73.8322C209.313 72.5383 209.9 71.2977 210.944 70.3827C211.989 69.4677 213.405 68.9531 214.881 68.9516H254.531C256.008 68.9531 257.424 69.4677 258.468 70.3827C259.513 71.2977 260.1 72.5383 260.102 73.8322V126.035C260.1 127.329 259.513 128.57 258.468 129.485C257.424 130.4 256.008 130.915 254.531 130.916ZM214.881 69.5258C213.578 69.5271 212.329 69.9812 211.407 70.7886C210.486 71.5959 209.968 72.6905 209.966 73.8322V126.035C209.968 127.177 210.486 128.272 211.407 129.079C212.329 129.887 213.578 130.341 214.881 130.342H254.531C255.834 130.341 257.084 129.887 258.005 129.079C258.927 128.272 259.445 127.177 259.446 126.035V73.8322C259.445 72.6905 258.927 71.5959 258.005 70.7886C257.084 69.9812 255.834 69.5271 254.531 69.5258H214.881Z" fill="#3F3D56"/>
<path d="M246.503 81.8468H222.91C222.214 81.8468 221.548 81.6048 221.056 81.1741C220.564 80.7434 220.288 80.1592 220.288 79.55C220.288 78.9409 220.564 78.3567 221.056 77.926C221.548 77.4952 222.214 77.2532 222.91 77.2532H246.503C247.198 77.2532 247.865 77.4952 248.357 77.926C248.848 78.3567 249.124 78.9409 249.124 79.55C249.124 80.1592 248.848 80.7434 248.357 81.1741C247.865 81.6048 247.198 81.8468 246.503 81.8468Z" fill="#CCCCCC"/>
<path d="M246.503 90.4597H222.91C222.214 90.4597 221.548 90.2177 221.056 89.787C220.564 89.3563 220.288 88.7721 220.288 88.1629C220.288 87.5538 220.564 86.9696 221.056 86.5389C221.548 86.1081 222.214 85.8661 222.91 85.8661H246.503C247.198 85.8661 247.865 86.1081 248.357 86.5389C248.848 86.9696 249.124 87.5538 249.124 88.1629C249.124 88.7721 248.848 89.3563 248.357 89.787C247.865 90.2177 247.198 90.4597 246.503 90.4597Z" fill="#CCCCCC"/>
<path d="M248.469 112.423H220.944C220.205 112.422 219.497 112.164 218.975 111.707C218.453 111.249 218.159 110.629 218.158 109.982V98.4983C218.159 97.8513 218.453 97.2311 218.975 96.7736C219.497 96.3161 220.205 96.0588 220.944 96.058H248.469C249.207 96.0588 249.915 96.3161 250.438 96.7736C250.96 97.2311 251.253 97.8513 251.254 98.4983V109.982C251.253 110.629 250.96 111.249 250.438 111.707C249.915 112.164 249.207 112.422 248.469 112.423Z" fill="#E6E6E6"/>
<path d="M246.503 122.615H222.91C222.214 122.615 221.548 122.373 221.056 121.942C220.564 121.511 220.288 120.927 220.288 120.318C220.288 119.709 220.564 119.124 221.056 118.694C221.548 118.263 222.214 118.021 222.91 118.021H246.503C247.198 118.021 247.865 118.263 248.357 118.694C248.848 119.124 249.124 119.709 249.124 120.318C249.124 120.927 248.848 121.511 248.357 121.942C247.865 122.373 247.198 122.615 246.503 122.615Z" fill="#CCCCCC"/>
<path d="M230.283 47.9452H190.633C189.156 47.9437 187.74 47.429 186.696 46.514C185.651 45.5991 185.064 44.3585 185.062 43.0645V10.6709C185.064 9.37696 185.651 8.1364 186.696 7.22141C187.74 6.30643 189.156 5.79175 190.633 5.7903H230.283C231.759 5.79175 233.175 6.30643 234.22 7.22141C235.264 8.1364 235.852 9.37696 235.853 10.6709V43.0645C235.852 44.3585 235.264 45.5991 234.22 46.514C233.175 47.429 231.759 47.9437 230.283 47.9452ZM190.633 6.36449C189.33 6.36578 188.08 6.81992 187.159 7.62725C186.237 8.43459 185.719 9.5292 185.718 10.6709V43.0645C185.719 44.2063 186.237 45.3009 187.159 46.1082C188.08 46.9155 189.33 47.3697 190.633 47.371H230.283C231.586 47.3697 232.835 46.9155 233.757 46.1082C234.678 45.3009 235.196 44.2063 235.198 43.0645V10.6709C235.196 9.5292 234.678 8.43459 233.757 7.62725C232.835 6.81992 231.586 6.36578 230.283 6.36449H190.633Z" fill="#3F3D56"/>
<path d="M222.254 37.7774H198.661C197.966 37.7774 197.299 37.5354 196.807 37.1047C196.316 36.674 196.04 36.0898 196.04 35.4807C196.04 34.8715 196.316 34.2873 196.807 33.8566C197.299 33.4259 197.966 33.1839 198.661 33.1839H222.254C222.95 33.1839 223.616 33.4259 224.108 33.8566C224.6 34.2873 224.876 34.8715 224.876 35.4807C224.876 36.0898 224.6 36.674 224.108 37.1047C223.616 37.5354 222.95 37.7774 222.254 37.7774Z" fill="#CCCCCC"/>
<path d="M222.254 29.1645H198.661C197.966 29.1645 197.299 28.9226 196.807 28.4918C196.316 28.0611 196.04 27.4769 196.04 26.8678C196.04 26.2586 196.316 25.6744 196.807 25.2437C197.299 24.813 197.966 24.571 198.661 24.571H222.254C222.95 24.571 223.616 24.813 224.108 25.2437C224.6 25.6744 224.876 26.2586 224.876 26.8678C224.876 27.4769 224.6 28.0611 224.108 28.4918C223.616 28.9226 222.95 29.1645 222.254 29.1645Z" fill="#CCCCCC"/>
<path d="M222.254 20.5516H198.661C197.966 20.5516 197.299 20.3097 196.807 19.8789C196.316 19.4482 196.04 18.864 196.04 18.2549C196.04 17.6457 196.316 17.0615 196.807 16.6308C197.299 16.2001 197.966 15.9581 198.661 15.9581H222.254C222.95 15.9581 223.616 16.2001 224.108 16.6308C224.6 17.0615 224.876 17.6457 224.876 18.2549C224.876 18.864 224.6 19.4482 224.108 19.8789C223.616 20.3097 222.95 20.5516 222.254 20.5516Z" fill="#CCCCCC"/>
<path d="M160.158 47.6581C164.321 47.6581 167.695 44.7017 167.695 41.0548C167.695 37.408 164.321 34.4516 160.158 34.4516C155.996 34.4516 152.622 37.408 152.622 41.0548C152.622 44.7017 155.996 47.6581 160.158 47.6581Z" fill="#6C63FF"/>
<path d="M159.411 43.5738C159.242 43.5741 159.077 43.5261 158.941 43.4369L158.933 43.4314L157.161 42.2433C157.079 42.1884 157.01 42.1197 156.958 42.0413C156.905 41.9628 156.872 41.8762 156.858 41.7862C156.844 41.6963 156.851 41.6049 156.877 41.5172C156.904 41.4295 156.95 41.3473 157.013 41.2752C157.076 41.2032 157.155 41.1428 157.244 41.0974C157.334 41.0521 157.433 41.0227 157.536 41.0109C157.639 40.9992 157.743 41.0053 157.843 41.029C157.943 41.0526 158.037 41.0933 158.119 41.1488L159.266 41.9195L161.977 38.8218C162.04 38.7499 162.118 38.6896 162.208 38.6443C162.297 38.599 162.396 38.5696 162.498 38.5578C162.601 38.5459 162.705 38.5519 162.805 38.5753C162.905 38.5987 162.998 38.6391 163.08 38.6942L163.063 38.7142L163.081 38.6945C163.246 38.8058 163.354 38.9702 163.382 39.1514C163.409 39.3326 163.353 39.5159 163.226 39.6611L160.037 43.3048C159.964 43.3887 159.869 43.4567 159.76 43.5033C159.652 43.55 159.532 43.5741 159.411 43.5738Z" fill="white"/>
<path d="M258.463 77.229C262.626 77.229 266 74.2727 266 70.6258C266 66.9789 262.626 64.0226 258.463 64.0226C254.301 64.0226 250.927 66.9789 250.927 70.6258C250.927 74.2727 254.301 77.229 258.463 77.229Z" fill="#3F3D56"/>
<path d="M257.716 73.1448C257.547 73.1451 257.382 73.097 257.246 73.0079L257.238 73.0024L255.466 71.8143C255.384 71.7593 255.315 71.6907 255.263 71.6123C255.21 71.5338 255.177 71.4472 255.163 71.3572C255.149 71.2673 255.156 71.1758 255.182 71.0882C255.209 71.0005 255.255 70.9182 255.318 70.8462C255.381 70.7742 255.46 70.7138 255.549 70.6684C255.639 70.623 255.738 70.5936 255.841 70.5819C255.944 70.5701 256.048 70.5763 256.148 70.5999C256.248 70.6236 256.342 70.6643 256.424 70.7198L257.571 71.4905L260.282 68.3927C260.345 68.3209 260.423 68.2606 260.513 68.2153C260.602 68.17 260.701 68.1406 260.803 68.1287C260.906 68.1169 261.01 68.1228 261.11 68.1462C261.209 68.1696 261.303 68.21 261.385 68.2651L261.368 68.2852L261.386 68.2654C261.551 68.3768 261.659 68.5411 261.686 68.7223C261.714 68.9036 261.658 69.0869 261.531 69.232L258.342 72.8757C258.269 72.9597 258.174 73.0276 258.065 73.0743C257.957 73.121 257.837 73.1451 257.716 73.1448Z" fill="white"/>
<path d="M234.542 13.2065C238.705 13.2065 242.079 10.2501 242.079 6.60323C242.079 2.95637 238.705 0 234.542 0C230.38 0 227.006 2.95637 227.006 6.60323C227.006 10.2501 230.38 13.2065 234.542 13.2065Z" fill="#3F3D56"/>
<path d="M233.795 9.12221C233.626 9.12249 233.461 9.07445 233.325 8.98534L233.317 8.9798L231.545 7.79169C231.463 7.73675 231.394 7.6681 231.342 7.58967C231.29 7.51124 231.256 7.42457 231.242 7.33463C231.228 7.24469 231.235 7.15326 231.261 7.06557C231.288 6.97788 231.334 6.89566 231.397 6.82363C231.46 6.7516 231.539 6.69118 231.628 6.64582C231.718 6.60046 231.817 6.57106 231.92 6.55931C232.023 6.54756 232.127 6.55369 232.227 6.57735C232.327 6.601 232.421 6.64172 232.503 6.69717L233.65 7.4679L236.361 4.37015C236.424 4.2983 236.502 4.23801 236.592 4.19271C236.681 4.14741 236.78 4.118 236.882 4.10615C236.985 4.0943 237.089 4.10025 237.189 4.12365C237.289 4.14705 237.382 4.18746 237.464 4.24255L237.447 4.2626L237.465 4.24284C237.63 4.35423 237.738 4.51855 237.766 4.69977C237.793 4.88098 237.737 5.06428 237.61 5.20946L234.421 8.85314C234.348 8.93711 234.253 9.00505 234.144 9.05172C234.036 9.09838 233.916 9.1225 233.795 9.12221Z" fill="white"/>
<path d="M125.175 178H0.327683C0.240776 178 0.157428 177.97 0.0959759 177.916C0.0345234 177.862 0 177.789 0 177.713C0 177.637 0.0345234 177.564 0.0959759 177.51C0.157428 177.456 0.240776 177.426 0.327683 177.426H125.175C125.262 177.426 125.345 177.456 125.407 177.51C125.468 177.564 125.503 177.637 125.503 177.713C125.503 177.789 125.468 177.862 125.407 177.916C125.345 177.97 125.262 178 125.175 178Z" fill="#3F3D56"/>
</g>
<defs>
<clipPath id="clip0_4302_2464">
<rect width="266" height="178" fill="white"/>
</clipPath>
</defs>
</svg>
