<svg width="24" height="24" viewBox="0 0 24 24" fill="none" xmlns="http://www.w3.org/2000/svg">
<g clip-path="url(#clip0_0_6)">
<path d="M12 24C12.7957 24 13.5587 23.684 14.1213 23.1214C14.6839 22.5588 15 21.7957 15 21H9.00001C9.00001 21.7957 9.31608 22.5588 9.87869 23.1214C10.4413 23.684 11.2044 24 12 24Z" fill="white"/>
<path fill-rule="evenodd" clip-rule="evenodd" d="M12.0001 2.877L10.8046 3.1185C9.44849 3.3948 8.22954 4.13115 7.35403 5.20293C6.47851 6.27471 6.0002 7.61608 6.00005 9C6.00005 9.942 5.79905 12.2955 5.31155 14.613C5.07155 15.7635 4.74755 16.962 4.31705 18H19.6831C19.2526 16.962 18.9301 15.765 18.6886 14.613C18.2011 12.2955 18.0001 9.942 18.0001 9C17.9996 7.61634 17.5211 6.27532 16.6456 5.20385C15.7701 4.13238 14.5514 3.39625 13.1956 3.12L12.0001 2.8755V2.877ZM21.3301 18C21.6646 18.6705 22.0516 19.2015 22.5001 19.5H1.50004C1.94854 19.2015 2.33554 18.6705 2.67004 18C4.02005 15.3 4.50005 10.32 4.50005 9C4.50005 5.37 7.08005 2.34 10.5076 1.6485C10.4866 1.43993 10.5096 1.22928 10.5751 1.03015C10.6406 0.831025 10.7471 0.647829 10.8877 0.492382C11.0283 0.336934 11.2 0.212686 11.3915 0.127651C11.5831 0.0426159 11.7904 -0.00131836 12.0001 -0.00131836C12.2097 -0.00131836 12.417 0.0426159 12.6086 0.127651C12.8001 0.212686 12.9718 0.336934 13.1124 0.492382C13.253 0.647829 13.3595 0.831025 13.425 1.03015C13.4905 1.22928 13.5135 1.43993 13.4926 1.6485C15.188 1.99335 16.7121 2.91354 17.8069 4.25325C18.9017 5.59296 19.4998 7.26986 19.5001 9C19.5001 10.32 19.9801 15.3 21.3301 18Z" fill="white"/>
<circle cx="18.0001" cy="6.00003" r="4.28572" fill="#FFAB7B"/>
</g>
<defs>
<clipPath id="clip0_0_6">
<rect width="23.3333" height="23.3333" fill="white" transform="scale(1.02857)"/>
</clipPath>
</defs>
</svg>
