<svg width="35" height="35" viewBox="0 0 35 35" fill="none" xmlns="http://www.w3.org/2000/svg">
<g clip-path="url(#clip0_1_3308)">
<path d="M17.5 3.28125C14.6878 3.28125 11.9388 4.11517 9.60049 5.67754C7.26223 7.23992 5.43978 9.46058 4.36359 12.0587C3.28741 14.6569 3.00583 17.5158 3.55447 20.2739C4.1031 23.0321 5.4573 25.5656 7.44583 27.5542C9.43436 29.5427 11.9679 30.8969 14.7261 31.4455C17.4842 31.9942 20.3431 31.7126 22.9413 30.6364C25.5394 29.5602 27.7601 27.7378 29.3225 25.3995C30.8848 23.0613 31.7188 20.3122 31.7188 17.5C31.7115 13.7312 30.2112 10.1188 27.5462 7.45381C24.8812 4.78884 21.2688 3.28848 17.5 3.28125ZM24.2676 15.0117L16.2559 22.668C16.0487 22.8628 15.7746 22.9705 15.4902 22.9688C15.3513 22.9707 15.2132 22.9452 15.0842 22.8936C14.9551 22.8419 14.8376 22.7653 14.7383 22.668L10.7324 18.8398C10.6213 18.7429 10.531 18.6245 10.4668 18.4918C10.4026 18.359 10.3659 18.2146 10.359 18.0674C10.352 17.9201 10.3749 17.7729 10.4262 17.6347C10.4776 17.4965 10.5564 17.3701 10.6578 17.2631C10.7593 17.1561 10.8813 17.0707 11.0166 17.0121C11.1519 16.9535 11.2977 16.9228 11.4451 16.9219C11.5926 16.9211 11.7387 16.9501 11.8746 17.0071C12.0106 17.0641 12.1336 17.1481 12.2363 17.2539L15.4902 20.3574L22.7637 13.4258C22.9763 13.2402 23.2525 13.1441 23.5344 13.1574C23.8163 13.1708 24.0822 13.2926 24.2764 13.4974C24.4706 13.7021 24.5781 13.9741 24.5765 14.2563C24.5748 14.5385 24.4641 14.8092 24.2676 15.0117Z" fill="#438883"/>
</g>
<defs>
<clipPath id="clip0_1_3308">
<rect width="35" height="35" fill="white"/>
</clipPath>
</defs>
</svg>
